<svg id="Layer_1" data-name="Layer 1" xmlns="http://www.w3.org/2000/svg" viewBox="0 0 178.51 178.51"><defs><style>.cls-1{fill:#f69020;}.cls-2{fill:#f69120;}</style></defs><path class="cls-1" d="M98.11,26.89a56.79,56.79,0,0,0-40.59,16.5c-8.46,8.14-14.35,17.76-17,29.26a65,65,0,0,0-1.31,19.62c.06.8,0,1.26-1,1.39a6.05,6.05,0,0,0-3.38,1.39,2.55,2.55,0,0,1-.61.37c-1.52.71-2.19.36-2.39-1.26a63.07,63.07,0,0,1,3.94-31.84C45,39.4,62,25.23,86.05,20.43c21-4.19,40,1.28,56.3,15.16a64.15,64.15,0,0,1,22.28,39.1c3.49,20.44-1.53,38.81-14.68,54.8-10.46,12.71-24,20.27-40.19,23.13a64.45,64.45,0,0,1-23.09-.15c-.7-.13-1-.38-1-1.16.07-1.91,0-3.83,0-5.75,0-.73.12-.95.93-.8a68,68,0,0,0,15,1,56.83,56.83,0,0,0,33.17-12.39c9-7.06,16.06-15.72,19.65-26.7,7.34-22.4,3.56-42.82-12.2-60.52-9.66-10.85-22-17-36.51-18.82A62.93,62.93,0,0,0,98.11,26.89Z"/><path class="cls-2" d="M47,159.46H18.36c-.4,0-.8,0-1.19,0A4.26,4.26,0,0,1,12.82,155q0-24.19,0-48.38c0-2.89,1.74-4.6,4.63-4.67,1.92,0,3.84-.07,5.75,0,1,0,1.28-.31,1.19-1.23A4.52,4.52,0,0,1,24.51,99,1.43,1.43,0,0,1,26,97.9a1.39,1.39,0,0,1,1.54,1.22,8.06,8.06,0,0,1,.11,1.9c-.05.66.08.92.81.92,3,0,6,0,9,0,.78,0,1.1-.29,1.06-1.06a8.44,8.44,0,0,1,0-1.67,1.54,1.54,0,0,1,3.06.08c0,.15,0,.31,0,.47.11,2.16.11,2.16,2.34,2.16,2.44,0,4.87,0,7.31,0,.94,0,1.31-.33,1.23-1.27a9,9,0,0,1,.09-1.55,1.33,1.33,0,0,1,1.5-1.23,1.41,1.41,0,0,1,1.55,1.2,4.57,4.57,0,0,1,0,.83c0,2.26-.21,2,2,2,2.64,0,5.27,0,7.9,0,.8,0,1.06-.21,1-1a6,6,0,0,1,.09-1.79,1.43,1.43,0,0,1,1.52-1.25,1.42,1.42,0,0,1,1.52,1.25,7.62,7.62,0,0,1,.11,1.06c0,1.72,0,1.72,1.7,1.72s3.27,0,4.91,0q5,.1,5,5.09,0,13.23,0,26.46,0,10,0,20c0,.56,0,1.12,0,1.68a4.27,4.27,0,0,1-4.2,4.24c-.63.06-1.27.06-1.91.06Zm0-45.52H19.32c-1.64,0-1.64,0-1.64,1.61v36.53c0,1.88,0,1.92,2,1.92H74.49c.2,0,.4,0,.6,0,1,.05,1.35-.39,1.35-1.36q0-18.75,0-37.49c0-1-.33-1.25-1.31-1.24C65.75,114,56.37,113.94,47,113.94Zm-19.22-8.58c-.38,1,.27,2.71-1.64,2.82-2.16.12-1.48-1.77-1.89-2.88a2.91,2.91,0,0,0-1.51,3.63,3.6,3.6,0,0,0,3.43,2.47,3.63,3.63,0,0,0,3.22-2.75A2.75,2.75,0,0,0,27.76,105.36Zm38.63-.11c-1.51,1-2,2.27-1.52,3.73a3.42,3.42,0,0,0,6.62-.28,2.94,2.94,0,0,0-1.56-3.4c-.45,1.09.27,3-1.93,2.87C66.1,108,66.75,106.4,66.39,105.25Zm-24.51.07c-.39.44-.21,1-.27,1.49a1.33,1.33,0,0,1-1.46,1.38c-1.23,0-1.57-.38-1.67-2,0-.27.1-.63-.17-.77s-.56.21-.77.42a3.18,3.18,0,0,0,.34,4.75,3.27,3.27,0,0,0,4.92-.63A3,3,0,0,0,41.88,105.32Zm10.47,0a2.94,2.94,0,0,0-1.56,3.52,3.59,3.59,0,0,0,3.46,2.59,3.51,3.51,0,0,0,3.19-2.91,2.6,2.6,0,0,0-1.66-3.12c-.29,1,.37,2.58-1.44,2.8C52,108.46,52.92,106.32,52.35,105.29Z"/><path class="cls-1" d="M94.06,71.27c.1-2.26-.2-5,.23-7.67.37-2.33,2-3.72,4.06-3.56,2.37.19,3.57,1.51,3.62,4.05.07,4.26.1,8.53.15,12.79a17.15,17.15,0,0,0,.11,2c.21,1.56.94,1.9,2.3,1.07q8.67-5.3,17.33-10.62c1.09-.67,2.18-1.33,3.31-1.93a3.12,3.12,0,0,1,4.47,1.09,3,3,0,0,1-1,4.36c-4.36,2.79-8.79,5.48-13.2,8.2-2.72,1.67-5.43,3.34-8.17,5a2.18,2.18,0,0,0-1.3,2.09,1.15,1.15,0,0,1-.12.7c-1,1.45-.17,2.4.77,3.41q6.06,6.54,12.07,13.12c2,2.15,1.47,4.86-1,5.71a3.08,3.08,0,0,1-3.47-.95c-4.34-4.73-8.68-9.47-13-14.24a3.31,3.31,0,0,0-3.34-1.35,2.44,2.44,0,0,1-1.74-.24,2.42,2.42,0,0,0-2.7.26,29.32,29.32,0,0,1-4,2.35c-1.89.88-3.75.45-4.61-1.09a3.36,3.36,0,0,1,1.29-4.56c1-.69,2.07-1.35,3.16-1.94a1.63,1.63,0,0,0,1-1.8,7.29,7.29,0,0,1,3.09-7.31,2,2,0,0,0,.72-1.81C94.05,76.19,94.06,74,94.06,71.27Z"/><path class="cls-1" d="M144,92.14c-1,0-2,0-3,0a2.4,2.4,0,0,1-2.63-2.35,34.79,34.79,0,0,1,0-6.92,2.33,2.33,0,0,1,2.47-2.27q3.22-.07,6.45,0a2.49,2.49,0,0,1,2.58,2.58c.06,2.11.06,4.23,0,6.34a2.54,2.54,0,0,1-2.66,2.63c-1.07,0-2.15,0-3.23,0Z"/><path class="cls-2" d="M52.91,92.14c-1,0-2.07,0-3.11,0a2.49,2.49,0,0,1-2.64-2.51c-.07-2.18-.07-4.38,0-6.56a2.47,2.47,0,0,1,2.56-2.48q3.22-.06,6.45,0a2.34,2.34,0,0,1,2.46,2.27,34.41,34.41,0,0,1,0,7,2.33,2.33,0,0,1-2.5,2.23c-1.07,0-2.15,0-3.22,0Z"/><path class="cls-2" d="M98.46,137.64c-1.08,0-2.16,0-3.23,0a2.36,2.36,0,0,1-2.49-2.49q-.09-3.22,0-6.45a2.39,2.39,0,0,1,2.6-2.52q3.18-.08,6.34,0a2.28,2.28,0,0,1,2.5,2.35,46.77,46.77,0,0,1,0,6.8,2.32,2.32,0,0,1-2.53,2.32C100.61,137.68,99.53,137.64,98.46,137.64Z"/><path class="cls-2" d="M98.49,47c-1.16,0-2.32.05-3.47,0a2.12,2.12,0,0,1-2.19-2.2,42.2,42.2,0,0,1,0-6.93,2.25,2.25,0,0,1,2.33-2.24q3.35-.07,6.7,0a2.16,2.16,0,0,1,2.25,1.93,33.57,33.57,0,0,1,0,7.63c-.13,1.19-.94,1.79-2.27,1.86-1.12.06-2.24,0-3.35,0Z"/><path class="cls-2" d="M68.54,137.31c-1.07,0-2.5.42-3.12-.11s-.18-2.09-.24-3.2c0-.67,0-1.35,0-2-.07-1,.48-1.45,1.43-1.45,1.4,0,2.79,0,4.18,0,.78,0,1.27.34,1.26,1.22,0,1.64,0,3.27,0,4.9,0,.57-.18.76-.75.74-.91,0-1.83,0-2.74,0Z"/><path class="cls-2" d="M54.09,137.38c-.94-.14-2.45.53-3.1-.26s-.19-2.13-.19-3.24c0-.75.07-1.51.09-2.26s.48-1.1,1.23-1.1c1.44,0,2.87,0,4.3,0,.8,0,1.25.35,1.24,1.23q0,2.44,0,4.89c0,.58-.19.76-.76.74C56,137.35,55.15,137.38,54.09,137.38Z"/><path class="cls-2" d="M39.79,137.25c-1.07,0-2.49.42-3.12-.11s-.25-2.1-.23-3.2c.07-4.15,0-3.34,3.31-3.41h1.56c1.94,0,1.95,0,2,1.88,0,1.36,0,2.71,0,4.07,0,.69-.22.91-.89.88-.88-.05-1.76,0-2.63,0Z"/><path class="cls-2" d="M43.24,146.86c0,.8,0,1.6,0,2.39s-.13,1.08-1,1.05c-1.63-.06-3.26,0-4.9,0-.57,0-.88-.1-.86-.78,0-1.75,0-3.5,0-5.25,0-.53.12-.81.72-.8,1.76,0,3.51,0,5.26,0,.58,0,.77.22.75.78C43.21,145.11,43.24,146,43.24,146.86Z"/><path class="cls-2" d="M65.28,146.64c.14-.89-.51-2.35.27-3s2-.18,3.12-.19c.87,0,1.75,0,2.63,0,.5,0,.7.18.69.7,0,1.83,0,3.66,0,5.49,0,.54-.23.68-.72.67-1.75,0-3.5,0-5.25,0-.57,0-.78-.17-.76-.75C65.3,148.67,65.28,147.75,65.28,146.64Z"/><path class="cls-2" d="M25.51,137.3c-1.06,0-2.44.4-3.11-.11s-.16-2-.25-3.06a12.5,12.5,0,0,1,0-2.37c.08-.85.45-1.23,1.27-1.23h4.4c.79,0,1.16.35,1.15,1.16,0,1.63,0,3.26,0,4.89,0,.62-.18.85-.81.81-.88,0-1.75,0-2.63,0Z"/><path class="cls-2" d="M28.9,147.18c-.13.91.5,2.38-.26,3s-2.06.17-3.13.16c-3.85,0-3.33.4-3.35-3.39,0-1.11-.37-2.59.19-3.24s2.18-.22,3.32-.24,2.35-.44,3,.18.14,2,.22,3C28.91,146.76,28.9,146.88,28.9,147.18Z"/><path class="cls-2" d="M50.9,146.9c0-.87,0-1.75,0-2.62,0-.63.21-.84.83-.83,1.71,0,3.42,0,5.12,0,.62,0,.83.2.82.82,0,1.67,0,3.34,0,5,0,.68-.23,1-1,1-1.67,0-3.34,0-5,.05-.66,0-.81-.26-.79-.85C50.93,148.65,50.9,147.77,50.9,146.9Z"/><path class="cls-2" d="M25.76,117.59c.88.08,2.27-.46,2.94.2s.17,2.11.23,3.21c0,.76,0,1.52,0,2.28s-.38,1.16-1.16,1.16c-1.51,0-3,0-4.54,0a1,1,0,0,1-1.09-1.11c0-1.63,0-3.27,0-4.9,0-.73.3-.88.92-.85C23.9,117.62,24.74,117.59,25.76,117.59Z"/><path class="cls-1" d="M54.09,124.44c-.91-.12-2.38.5-3-.25s-.17-2-.17-3.12-.35-2.48.19-3.12,2.09-.18,3.19-.24c.87,0,1.75,0,2.63,0,.51,0,.7.19.7.7,0,1.8,0,3.59,0,5.38,0,.54-.21.69-.71.68C56,124.43,55.16,124.44,54.09,124.44Z"/><path class="cls-1" d="M72,121.24c-.12.91.49,2.37-.25,3s-2,.2-3.11.19-2.47.45-3.12-.18-.2-2.12-.22-3.22-.45-2.44.18-3.11,2-.17,3.1-.22c.76,0,1.52.06,2.27,0,1-.11,1.24.32,1.16,1.22C71.93,119.61,72,120.33,72,121.24Z"/><path class="cls-1" d="M36.53,120.84c.09-.88-.46-2.25.2-2.92s2-.19,3.09-.21,2.57-.37,3.23.18.18,2.17.26,3.3c0,.32,0,.64,0,1,.06,2.68-.27,2.26-2.41,2.33-1.11,0-2.23,0-3.34,0-.88.06-1.09-.3-1-1.09S36.53,121.82,36.53,120.84Z"/></svg>